# File created by Blade
# Date/Time:  Wed Sep 24 20:26:02 2014
# Frame Rate: 120.000 fps
#------------------------------------------------------
:FULLY-SPECIFIED
:DEGREES
945
root -5.987925 32.839590 -4.668951 193.377796 -78.722210 -169.039870
Spine -5.211374 6.495248 3.477373
Head -22.686240 18.740005 0.708871
LeftShoulder -7.935458 14.094466 6.181513
LeftArm 33.024793 50.156662 -59.894910
LeftForeArm 0.498730 0.000000 19.458953
LeftHand -22.736342 -0.000000 -11.883019
LeftHandThumb1 -26.253704 0.000000 33.147579
RightShoulder -18.562602 13.056372 -26.777315
RightArm -19.920436 -42.417932 106.841476
RightForeArm -25.891949 -0.000000 18.914228
RightHand -4.304167 -0.000000 21.992609
RightHandThumb1 -24.326973 -0.000000 -32.862282
LeftUpLeg -22.782064 7.816530 0.607004
LeftLeg -0.799020 -0.000000 0.000000
LeftFoot -9.922127 21.791661 -7.713797
LeftToeBase 1.070822 -0.000000 -0.000000
RightUpLeg -19.926712 -2.416058 -0.566485
RightLeg 6.004454 -0.000000 -0.000000
RightFoot -13.207430 6.703069 -0.424110
RightToeBase -1.892267 -0.000000 0.000000
946
root -5.975407 32.840875 -4.805851 193.822288 -80.050344 -169.766389
Spine -5.802450 6.136686 3.827329
Head -21.909683 17.670361 0.581915
LeftShoulder -8.086667 14.477196 5.640731
LeftArm 33.414271 50.069082 -59.549118
LeftForeArm 1.055087 -0.000000 19.286114
LeftHand -22.818301 -0.000000 -12.436656
LeftHandThumb1 -26.253704 0.000000 33.147579
RightShoulder -18.596526 12.667942 -26.755779
RightArm -19.822031 -42.333340 106.507068
RightForeArm -25.736006 -0.000000 18.968852
RightHand -4.308513 -0.000000 21.752751
RightHandThumb1 -24.326973 -0.000000 -32.862282
LeftUpLeg -22.962063 7.357260 0.751405
LeftLeg -0.162813 -0.000000 0.000000
LeftFoot -9.963616 20.740730 -8.474000
LeftToeBase 0.379496 -0.000000 -0.000000
RightUpLeg -19.151855 -2.685359 -0.414615
RightLeg 5.356283 -0.000000 -0.000000
RightFoot -13.329094 5.434609 -0.615234
RightToeBase -1.537803 -0.000000 0.000000
947
root -5.969803 32.851326 -4.935269 193.828898 -81.291940 -170.050229
Spine -6.384007 5.861082 4.270921
Head -21.166653 16.628652 0.425537
LeftShoulder -8.331929 14.934306 5.101807
LeftArm 33.860805 49.954593 -59.250553
LeftForeArm 1.471433 -0.000000 19.037608
LeftHand -22.788144 -0.000000 -12.327143
LeftHandThumb1 -26.253704 0.000000 33.147579
RightShoulder -18.669220 12.199960 -26.684929
RightArm -19.671602 -42.229502 105.995864
RightForeArm -25.540592 -0.000000 19.211752
RightHand -4.448967 -0.000000 21.278598
RightHandThumb1 -24.326973 -0.000000 -32.862282
LeftUpLeg -23.105742 6.869375 0.959443
LeftLeg 0.458689 -0.000000 -0.000000
LeftFoot -9.990214 20.210366 -8.549340
LeftToeBase 0.276290 -0.000000 -0.000000
RightUpLeg -18.447229 -3.289616 -0.142245
RightLeg 4.825013 -0.000000 -0.000000
RightFoot -13.336022 4.986831 -0.524877
RightToeBase -0.265856 -0.000000 0.000000
948
root -5.968401 32.869306 -5.060605 193.667756 -82.469796 -170.149464
Spine -6.978959 5.571842 4.728202
Head -20.458640 15.551526 0.205689
LeftShoulder -8.577975 15.329092 4.580134
LeftArm 33.924389 49.785550 -59.198631
LeftForeArm 1.756074 -0.000000 18.949191
LeftHand -22.900875 -0.000000 -12.538993
LeftHandThumb1 -26.253704 0.000000 33.147579
RightShoulder -18.665197 11.901286 -26.662373
RightArm -19.629668 -41.832557 105.504050
RightForeArm -25.489058 -0.000000 19.402468
RightHand -4.335888 -0.000000 21.063109
RightHandThumb1 -24.326973 -0.000000 -32.862282
LeftUpLeg -23.253113 6.490150 1.143839
LeftLeg 1.050256 -0.000000 -0.000000
LeftFoot -10.022127 19.689116 -8.770657
LeftToeBase -0.405765 -0.000000 0.000000
RightUpLeg -17.810319 -4.066267 0.168069
RightLeg 4.401148 -0.000000 -0.000000
RightFoot -13.209044 4.893776 -0.192881
RightToeBase -0.542395 -0.000000 0.000000
